<svg fill="none" height="48" viewBox="0 0 40 48" width="40" xmlns="http://www.w3.org/2000/svg"><g fill="#0A0D12"><path d="m26.7949 4.97245c2.8147 2.81466-.684 10.87675-7.8145 18.00725-7.1304 7.1305-15.19256 10.6291-18.00722 7.8145-2.81466-2.8147.684-10.8768 7.81447-18.0073 7.13045-7.13046 15.19255-10.62911 18.00725-7.81445z" opacity=".7"/><path d="m32.9121 11.0879c2.8147 2.8147-.684 10.8768-7.8145 18.0073s-15.19257 10.6291-18.00723 7.8145c-2.81466-2.8147.68399-10.8768 7.81443-18.0073 7.1305-7.1305 15.1926-10.62913 18.0073-7.8145z" opacity=".5"/><path d="m39.0273 17.2041c2.8147 2.8147-.684 10.8768-7.8144 18.0073-7.1305 7.1305-15.1926 10.6291-18.0073 7.8145-2.8147-2.8147.684-10.8768 7.8145-18.0073 7.1304-7.1305 15.1926-10.6291 18.0072-7.8145z" opacity=".3"/></g></svg>
